<svg width="54" height="53" viewBox="0 0 54 53" fill="none" xmlns="http://www.w3.org/2000/svg">
<path d="M18.5916 44.7255C19.5133 44.7255 20.2606 43.9783 20.2606 43.0565C20.2606 42.1348 19.5133 41.3876 18.5916 41.3876C17.6698 41.3876 16.9226 42.1348 16.9226 43.0565C16.9226 43.9783 17.6698 44.7255 18.5916 44.7255Z" stroke="white" stroke-width="3" stroke-linecap="round" stroke-linejoin="round"/>
<path d="M41.7488 44.7255C42.6706 44.7255 43.4178 43.9783 43.4178 43.0565C43.4178 42.1348 42.6706 41.3876 41.7488 41.3876C40.8271 41.3876 40.0798 42.1348 40.0798 43.0565C40.0798 43.9783 40.8271 44.7255 41.7488 44.7255Z" stroke="white" stroke-width="3" stroke-linecap="round" stroke-linejoin="round"/>
<path d="M5.34363 8.30432H11.96L16.9223 36.424H43.3878" stroke="white" stroke-width="3" stroke-linecap="round" stroke-linejoin="round"/>
<path d="M16.926 29.8096H42.7133C42.9046 29.8098 43.09 29.7436 43.238 29.6224C43.386 29.5012 43.4874 29.3324 43.5249 29.1449L46.5023 14.258C46.5263 14.138 46.5234 14.0141 46.4937 13.8953C46.464 13.7766 46.4084 13.6659 46.3307 13.5712C46.2531 13.4766 46.1554 13.4003 46.0447 13.348C45.9341 13.2957 45.8131 13.2686 45.6907 13.2687H13.6178" stroke="white" stroke-width="3" stroke-linecap="round" stroke-linejoin="round"/>
</svg>
