<svg width="53" height="53" viewBox="0 0 53 53" fill="none" xmlns="http://www.w3.org/2000/svg">
<path d="M26.4712 4.99695C18.2524 4.99695 11.5844 11.3435 11.5844 19.1601C11.5844 28.1543 21.5089 42.4074 25.1531 47.3304C25.3044 47.5382 25.5026 47.7073 25.7317 47.8239C25.9608 47.9405 26.2142 48.0013 26.4712 48.0013C26.7282 48.0013 26.9816 47.9405 27.2107 47.8239C27.4398 47.7073 27.6381 47.5382 27.7893 47.3304C31.4335 42.4095 41.3581 28.1615 41.3581 19.1601C41.3581 11.3435 34.69 4.99695 26.4712 4.99695Z" stroke="white" stroke-width="3" stroke-linecap="round" stroke-linejoin="round"/>
<path d="M26.4761 24.8535C29.2187 24.8535 31.442 22.6302 31.442 19.8876C31.442 17.145 29.2187 14.9216 26.4761 14.9216C23.7335 14.9216 21.5101 17.145 21.5101 19.8876C21.5101 22.6302 23.7335 24.8535 26.4761 24.8535Z" stroke="white" stroke-width="3" stroke-linecap="round" stroke-linejoin="round"/>
</svg>
