<svg width="170" height="73" viewBox="0 0 170 73" fill="none" xmlns="http://www.w3.org/2000/svg">
<ellipse cx="85.0356" cy="36.5" rx="84.9714" ry="36.2052" fill="#E02222"/>
<path d="M33.1964 41.5698C33.1964 41.0565 32.9864 40.6248 32.5664 40.2748C32.1464 39.9248 31.5981 39.5981 30.9214 39.2948C30.2447 38.9915 29.5331 38.6881 28.7864 38.3848C28.0397 38.0581 27.3281 37.6731 26.6514 37.2298C25.9981 36.7865 25.4497 36.2381 25.0064 35.5848C24.5864 34.9315 24.3764 34.1265 24.3764 33.1698C24.3764 33.1698 24.5047 33.1698 24.7614 33.1698C25.0414 33.1698 25.3681 33.1698 25.7414 33.1698C26.1381 33.1698 26.5231 33.1698 26.8964 33.1698C27.2931 33.1698 27.6197 33.1698 27.8764 33.1698C28.1331 33.1698 28.2614 33.1698 28.2614 33.1698C28.2614 33.6831 28.4714 34.1148 28.8914 34.4648C29.3347 34.8148 29.8831 35.1415 30.5364 35.4448C31.2131 35.7248 31.9247 36.0281 32.6714 36.3548C33.4181 36.6581 34.1297 37.0315 34.8064 37.4748C35.4831 37.9181 36.0314 38.4665 36.4514 39.1198C36.8714 39.7731 37.0814 40.5898 37.0814 41.5698C37.0814 41.5698 36.9531 41.5698 36.6964 41.5698C36.4397 41.5698 36.1131 41.5698 35.7164 41.5698C35.3431 41.5698 34.9581 41.5698 34.5614 41.5698C34.1881 41.5698 33.8614 41.5698 33.5814 41.5698C33.3247 41.5698 33.1964 41.5698 33.1964 41.5698ZM30.5714 46.8198V43.5298C31.3414 43.5298 31.9714 43.3431 32.4614 42.9698C32.9514 42.5965 33.1964 42.1298 33.1964 41.5698H37.0814C37.0814 42.6198 36.8131 43.5415 36.2764 44.3348C35.7397 45.1281 34.9814 45.7465 34.0014 46.1898C33.0214 46.6098 31.8781 46.8198 30.5714 46.8198ZM24.3764 33.1698C24.3764 32.1431 24.6447 31.2331 25.1814 30.4398C25.7181 29.6465 26.4414 29.0281 27.3514 28.5848C28.2847 28.1181 29.3347 27.8848 30.5014 27.8848V31.1748C29.8714 31.1748 29.3347 31.3615 28.8914 31.7348C28.4714 32.1081 28.2614 32.5865 28.2614 33.1698H24.3764ZM27.6314 40.5548C27.7481 41.5348 28.0747 42.2815 28.6114 42.7948C29.1714 43.2848 29.8247 43.5298 30.5714 43.5298V46.8198C29.4281 46.8198 28.3781 46.5981 27.4214 46.1548C26.4881 45.6881 25.7181 45.0348 25.1114 44.1948C24.5281 43.3548 24.1431 42.3748 23.9564 41.2548L27.6314 40.5548ZM33.4414 34.1498C33.3247 33.1465 32.9864 32.3998 32.4264 31.9098C31.8897 31.4198 31.2364 31.1748 30.4664 31.1748V27.8848C31.6564 27.8848 32.7181 28.1181 33.6514 28.5848C34.5847 29.0281 35.3431 29.6698 35.9264 30.5098C36.5331 31.3265 36.9181 32.3065 37.0814 33.4498L33.4414 34.1498ZM39.9949 39.5398V35.1998H44.0549V39.5398H39.9949ZM39.9949 35.2348C39.9949 33.8115 40.2982 32.5515 40.9049 31.4548C41.5115 30.3581 42.3399 29.4948 43.3899 28.8648C44.4399 28.2115 45.6182 27.8848 46.9249 27.8848V31.1748C46.0382 31.1748 45.3382 31.5365 44.8249 32.2598C44.3115 32.9598 44.0549 33.9515 44.0549 35.2348H39.9949ZM49.8649 34.1498C49.7482 33.1465 49.4099 32.3998 48.8499 31.9098C48.3132 31.4198 47.6599 31.1748 46.8899 31.1748V27.8848C48.0799 27.8848 49.1415 28.1181 50.0749 28.5848C51.0082 29.0281 51.7665 29.6698 52.3499 30.5098C52.9565 31.3265 53.3415 32.3065 53.5049 33.4498L49.8649 34.1498ZM39.9949 39.5048H44.0549C44.0549 40.7648 44.3115 41.7565 44.8249 42.4798C45.3382 43.1798 46.0382 43.5298 46.9249 43.5298V46.8548C45.6182 46.8548 44.4399 46.5398 43.3899 45.9098C42.3399 45.2565 41.5115 44.3815 40.9049 43.2848C40.2982 42.1648 39.9949 40.9048 39.9949 39.5048ZM49.8649 40.5898L53.5049 41.2898C53.3415 42.3865 52.9565 43.3548 52.3499 44.1948C51.7665 45.0348 51.0082 45.6881 50.0749 46.1548C49.1415 46.6215 48.0799 46.8548 46.8899 46.8548V43.5298C47.6599 43.5298 48.3132 43.2848 48.8499 42.7948C49.4099 42.2815 49.7482 41.5465 49.8649 40.5898ZM65.5818 39.5048V35.2348H69.6418V39.5048H65.5818ZM55.6068 39.5048V35.2348H59.6668V39.5048H55.6068ZM62.5018 31.2098V27.9198H62.7818V31.2098H62.5018ZM62.5018 46.8198V43.4948H62.7818V46.8198H62.5018ZM55.6068 35.2698C55.6068 33.8465 55.9101 32.5865 56.5168 31.4898C57.1234 30.3931 57.9518 29.5298 59.0018 28.8998C60.0518 28.2465 61.2301 27.9198 62.5368 27.9198V31.2098C61.6501 31.2098 60.9501 31.5715 60.4368 32.2948C59.9234 32.9948 59.6668 33.9865 59.6668 35.2698H55.6068ZM69.6418 35.2698H65.5818C65.5818 33.9865 65.3251 32.9948 64.8118 32.2948C64.3218 31.5715 63.6218 31.2098 62.7118 31.2098V27.9198C64.0418 27.9198 65.2201 28.2465 66.2468 28.8998C67.2968 29.5298 68.1251 30.3931 68.7318 31.4898C69.3384 32.5865 69.6418 33.8465 69.6418 35.2698ZM55.6068 39.4698H59.6668C59.6668 40.7298 59.9234 41.7215 60.4368 42.4448C60.9501 43.1448 61.6501 43.4948 62.5368 43.4948V46.8198C61.2301 46.8198 60.0518 46.5048 59.0018 45.8748C57.9518 45.2215 57.1234 44.3465 56.5168 43.2498C55.9101 42.1298 55.6068 40.8698 55.6068 39.4698ZM69.6418 39.4698C69.6418 40.8698 69.3384 42.1298 68.7318 43.2498C68.1251 44.3465 67.2968 45.2215 66.2468 45.8748C65.2201 46.5048 64.0418 46.8198 62.7118 46.8198V43.4948C63.6218 43.4948 64.3218 43.1448 64.8118 42.4448C65.3251 41.7215 65.5818 40.7298 65.5818 39.4698H69.6418ZM72.7855 46.2948V28.4448H76.8455V46.2948H72.7855ZM75.3755 35.0598C75.3755 33.7065 75.5855 32.5048 76.0055 31.4548C76.4488 30.3815 77.0555 29.5415 77.8255 28.9348C78.5955 28.3048 79.4588 27.9898 80.4155 27.9898L79.4705 31.6998C78.6772 31.6998 78.0355 32.0148 77.5455 32.6448C77.0788 33.2515 76.8455 34.0565 76.8455 35.0598H75.3755ZM81.8505 32.7848C81.5005 32.4581 81.1155 32.2015 80.6955 32.0148C80.2755 31.8048 79.8672 31.6998 79.4705 31.6998L80.4155 27.9898C80.9755 27.9898 81.4888 28.0948 81.9555 28.3048C82.4222 28.5148 82.9005 28.8531 83.3905 29.3198L81.8505 32.7848ZM86.0814 46.2248H90.1414V53.2948H86.0814V46.2248ZM90.1414 28.4448V46.2948H86.0814V28.4448H90.1414ZM100.151 34.4648V40.2748H96.0914V34.4648H100.151ZM96.0914 40.2748H100.151C100.151 41.5115 99.8947 42.6315 99.3814 43.6348C98.8681 44.6148 98.1681 45.3965 97.2814 45.9798C96.4181 46.5398 95.4381 46.8198 94.3414 46.8198L93.2214 43.4598C94.0614 43.4598 94.7497 43.1681 95.2864 42.5848C95.8231 42.0015 96.0914 41.2315 96.0914 40.2748ZM88.6714 40.0998H90.1414C90.1414 41.1031 90.4214 41.9198 90.9814 42.5498C91.5647 43.1565 92.3114 43.4598 93.2214 43.4598L94.3414 46.8198C93.2681 46.8198 92.2997 46.5281 91.4364 45.9448C90.5964 45.3615 89.9197 44.5681 89.4064 43.5648C88.9164 42.5381 88.6714 41.3831 88.6714 40.0998ZM96.0914 34.4648C96.0914 33.4848 95.8231 32.7031 95.2864 32.1198C94.7497 31.5365 94.0614 31.2448 93.2214 31.2448L94.3414 27.8848C95.4381 27.8848 96.4181 28.1765 97.2814 28.7598C98.1681 29.3198 98.8681 30.1015 99.3814 31.1048C99.8947 32.0848 100.151 33.2048 100.151 34.4648H96.0914ZM88.6714 34.6398C88.6714 33.3565 88.9164 32.2015 89.4064 31.1748C89.9197 30.1481 90.5964 29.3431 91.4364 28.7598C92.2997 28.1765 93.2681 27.8848 94.3414 27.8848L93.2214 31.2448C92.3114 31.2448 91.5647 31.5598 90.9814 32.1898C90.4214 32.7965 90.1414 33.6131 90.1414 34.6398H88.6714ZM104.805 40.4848V21.4098L108.865 21.4448V40.4848H104.805ZM102.775 31.5948V28.4448H113.275V31.5948H102.775ZM104.805 40.4498H108.865C108.865 41.0798 108.958 41.6281 109.145 42.0948C109.331 42.5615 109.588 42.9231 109.915 43.1798C110.265 43.4131 110.673 43.5298 111.14 43.5298L110.685 46.8198C108.841 46.8198 107.395 46.2598 106.345 45.1398C105.318 44.0198 104.805 42.4565 104.805 40.4498ZM112.715 42.9348L114.255 45.6298C113.695 46.0498 113.111 46.3531 112.505 46.5398C111.921 46.7265 111.315 46.8198 110.685 46.8198L111.14 43.5298C111.443 43.5298 111.723 43.4715 111.98 43.3548C112.236 43.2381 112.481 43.0981 112.715 42.9348ZM117.104 38.4898V35.8998H129.249V38.4898H117.104ZM122.249 46.8548V43.5298H122.494V46.8548H122.249ZM115.319 39.5048V35.2348H119.379V39.5048H115.319ZM125.189 35.8998V34.6048H129.249V35.8998H125.189ZM129.249 34.6398H125.189C125.189 33.6131 124.909 32.7848 124.349 32.1548C123.812 31.5248 123.112 31.2098 122.249 31.2098V27.8848C123.579 27.8848 124.769 28.1765 125.819 28.7598C126.892 29.3431 127.732 30.1481 128.339 31.1748C128.945 32.2015 129.249 33.3565 129.249 34.6398ZM125.434 40.5898L129.074 41.2898C128.91 42.3865 128.525 43.3548 127.919 44.1948C127.335 45.0348 126.577 45.6881 125.644 46.1548C124.71 46.6215 123.649 46.8548 122.459 46.8548V43.5298C123.229 43.5298 123.882 43.2848 124.419 42.7948C124.979 42.2815 125.317 41.5465 125.434 40.5898ZM115.319 35.2348C115.319 33.8348 115.622 32.5865 116.229 31.4898C116.835 30.3698 117.664 29.4948 118.714 28.8648C119.764 28.2115 120.942 27.8848 122.249 27.8848V31.2098C121.362 31.2098 120.662 31.5598 120.149 32.2598C119.635 32.9598 119.379 33.9515 119.379 35.2348H115.319ZM115.319 39.5048H119.379C119.379 40.7648 119.635 41.7565 120.149 42.4798C120.662 43.1798 121.362 43.5298 122.249 43.5298V46.8548C120.942 46.8548 119.764 46.5398 118.714 45.9098C117.664 45.2565 116.835 44.3815 116.229 43.2848C115.622 42.1648 115.319 40.9048 115.319 39.5048ZM132.109 39.5398V35.1998H136.169V39.5398H132.109ZM132.109 35.2348C132.109 33.8115 132.412 32.5515 133.019 31.4548C133.626 30.3581 134.454 29.4948 135.504 28.8648C136.554 28.2115 137.732 27.8848 139.039 27.8848V31.1748C138.152 31.1748 137.452 31.5365 136.939 32.2598C136.426 32.9598 136.169 33.9515 136.169 35.2348H132.109ZM141.979 34.1498C141.862 33.1465 141.524 32.3998 140.964 31.9098C140.427 31.4198 139.774 31.1748 139.004 31.1748V27.8848C140.194 27.8848 141.256 28.1181 142.189 28.5848C143.122 29.0281 143.881 29.6698 144.464 30.5098C145.071 31.3265 145.456 32.3065 145.619 33.4498L141.979 34.1498ZM132.109 39.5048H136.169C136.169 40.7648 136.426 41.7565 136.939 42.4798C137.452 43.1798 138.152 43.5298 139.039 43.5298V46.8548C137.732 46.8548 136.554 46.5398 135.504 45.9098C134.454 45.2565 133.626 44.3815 133.019 43.2848C132.412 42.1648 132.109 40.9048 132.109 39.5048ZM141.979 40.5898L145.619 41.2898C145.456 42.3865 145.071 43.3548 144.464 44.1948C143.881 45.0348 143.122 45.6881 142.189 46.1548C141.256 46.6215 140.194 46.8548 139.004 46.8548V43.5298C139.774 43.5298 140.427 43.2848 140.964 42.7948C141.524 42.2815 141.862 41.5465 141.979 40.5898Z" fill="white"/>
</svg>
