<svg width="54" height="53" viewBox="0 0 54 53" fill="none" xmlns="http://www.w3.org/2000/svg">
<path d="M27.5454 4.99602C15.4519 4.83267 5.57901 14.7056 5.74235 26.7991C5.90363 38.3974 15.3475 47.8412 26.9458 48.0025C39.0414 48.1679 48.9122 38.295 48.7468 26.2015C48.5876 14.6011 39.1437 5.15729 27.5454 4.99602ZM40.6148 38.8274C40.5736 38.872 40.5232 38.9069 40.467 38.9298C40.4108 38.9526 40.3503 38.9628 40.2897 38.9597C40.2291 38.9565 40.17 38.9401 40.1165 38.9115C40.063 38.8829 40.0164 38.8429 39.9801 38.7944C39.0554 37.5845 37.923 36.5487 36.6357 35.7353C34.0036 34.0461 30.6685 33.1156 27.2456 33.1156C23.8227 33.1156 20.4876 34.0461 17.8555 35.7353C16.5683 36.5484 15.4359 37.5838 14.5111 38.7933C14.4748 38.8419 14.4282 38.8819 14.3747 38.9105C14.3212 38.939 14.2621 38.9555 14.2015 38.9586C14.1409 38.9618 14.0804 38.9516 14.0242 38.9287C13.968 38.9059 13.9176 38.8709 13.8764 38.8264C10.8428 35.5517 9.12446 31.2727 9.05055 26.8094C8.88203 16.7494 17.137 8.32902 27.2011 8.30421C37.2653 8.2794 45.4406 16.4517 45.4406 26.4993C45.4441 31.0702 43.7204 35.4736 40.6148 38.8274Z" fill="white"/>
<path d="M27.2457 14.9238C25.2067 14.9238 23.3632 15.6879 22.0532 17.0765C20.7431 18.4651 20.0886 20.3852 20.2365 22.4459C20.5363 26.5041 23.6806 29.8128 27.2457 29.8128C30.8108 29.8128 33.9488 26.5041 34.2549 22.4469C34.4079 20.4059 33.7586 18.5034 32.4268 17.0889C31.1117 15.6931 29.2712 14.9238 27.2457 14.9238Z" fill="white"/>
</svg>
