<svg width="21" height="21" viewBox="0 0 21 21" fill="none" xmlns="http://www.w3.org/2000/svg">
<g opacity="0.5">
<path d="M9.06827 2.62634C7.79394 2.62634 6.54822 3.00423 5.48865 3.71221C4.42908 4.42019 3.60325 5.42647 3.11558 6.6038C2.62791 7.78113 2.50032 9.07663 2.74893 10.3265C2.99754 11.5763 3.61119 12.7244 4.51228 13.6255C5.41337 14.5266 6.56143 15.1402 7.81127 15.3888C9.06112 15.6374 10.3566 15.5098 11.534 15.0222C12.7113 14.5345 13.7176 13.7087 14.4255 12.6491C15.1335 11.5895 15.5114 10.3438 15.5114 9.06949C15.5113 7.36069 14.8324 5.72192 13.6241 4.51362C12.4158 3.30532 10.7771 2.62645 9.06827 2.62634V2.62634Z" stroke="black" stroke-width="3" stroke-miterlimit="10"/>
<path d="M13.8746 13.8766L18.3763 18.3782" stroke="black" stroke-width="3" stroke-miterlimit="10" stroke-linecap="round"/>
</g>
</svg>
